HIERARCHY
ROOT mixamorig:Hips
{
	OFFSET -0.000008 104.274872 1.554316
	CHANNELS 6 Xposition Yposition Zposition Xrotation Yrotation Zrotation
	JOINT mixamorig:Spine
	{
		OFFSET -0.000005 10.181595 0.131519
		CHANNELS 6 Xposition Yposition Zposition Xrotation Yrotation Zrotation
		JOINT mixamorig:Spine1
		{
			OFFSET -0.000000 9.893959 -1.470707
			CHANNELS 6 Xposition Yposition Zposition Xrotation Yrotation Zrotation
			JOINT mixamorig:Spine2
			{
				OFFSET -0.000000 9.220757 -1.370641
				CHANNELS 6 Xposition Yposition Zposition Xrotation Yrotation Zrotation
				JOINT mixamorig:Neck
				{
					OFFSET 0.000001 16.740417 -2.049036
					CHANNELS 6 Xposition Yposition Zposition Xrotation Yrotation Zrotation
					JOINT mixamorig:Head
					{
						OFFSET 0.000000 9.617874 1.685006
						CHANNELS 6 Xposition Yposition Zposition Xrotation Yrotation Zrotation
						JOINT mixamorig:HeadTop_End
						{
							OFFSET 0.000002 22.037354 7.501101
							CHANNELS 6 Xposition Yposition Zposition Xrotation Yrotation Zrotation
							End Site
							{
								OFFSET 0.000168 2310.654297 -282.823242
							}
						}
					}
				}
				JOINT mixamorig:RightShoulder
				{
					OFFSET -4.569970 11.014908 -2.160885
					CHANNELS 6 Xposition Yposition Zposition Xrotation Yrotation Zrotation
					JOINT mixamorig:RightArm
					{
						OFFSET -10.592851 -0.524811 -2.232101
						CHANNELS 6 Xposition Yposition Zposition Xrotation Yrotation Zrotation
						JOINT mixamorig:RightForeArm
						{
							OFFSET -27.841511 0.000031 -0.000004
							CHANNELS 6 Xposition Yposition Zposition Xrotation Yrotation Zrotation
							JOINT mixamorig:RightHand
							{
								OFFSET -28.328831 -0.000015 0.000015
								CHANNELS 6 Xposition Yposition Zposition Xrotation Yrotation Zrotation
								JOINT mixamorig:RightHandThumb1
								{
									OFFSET -2.464806 -1.573990 2.681852
									CHANNELS 6 Xposition Yposition Zposition Xrotation Yrotation Zrotation
									JOINT mixamorig:RightHandThumb2
									{
										OFFSET -3.215179 -1.872803 1.924282
										CHANNELS 6 Xposition Yposition Zposition Xrotation Yrotation Zrotation
										JOINT mixamorig:RightHandThumb3
										{
											OFFSET -2.654831 -1.527969 1.512609
											CHANNELS 6 Xposition Yposition Zposition Xrotation Yrotation Zrotation
											JOINT mixamorig:RightHandThumb4
											{
												OFFSET -2.018814 -1.152008 1.108052
												CHANNELS 6 Xposition Yposition Zposition Xrotation Yrotation Zrotation
												End Site
												{
													OFFSET -188.809540 -114.533607 132.431396
												}
											}
										}
									}
								}
								JOINT mixamorig:RightHandIndex1
								{
									OFFSET -9.108284 -0.517868 2.259835
									CHANNELS 6 Xposition Yposition Zposition Xrotation Yrotation Zrotation
									JOINT mixamorig:RightHandIndex2
									{
										OFFSET -3.699989 0.000000 0.001215
										CHANNELS 6 Xposition Yposition Zposition Xrotation Yrotation Zrotation
										JOINT mixamorig:RightHandIndex3
										{
											OFFSET -2.850006 0.000031 -0.000522
											CHANNELS 6 Xposition Yposition Zposition Xrotation Yrotation Zrotation
											JOINT mixamorig:RightHandIndex4
											{
												OFFSET -2.772186 -0.000015 -0.000020
												CHANNELS 6 Xposition Yposition Zposition Xrotation Yrotation Zrotation
												End Site
												{
													OFFSET -277.218445 0.000000 -0.050231
												}
											}
										}
									}
								}
								JOINT mixamorig:RightHandMiddle1
								{
									OFFSET -9.532516 -0.000031 -0.000023
									CHANNELS 6 Xposition Yposition Zposition Xrotation Yrotation Zrotation
									JOINT mixamorig:RightHandMiddle2
									{
										OFFSET -3.700005 -0.000015 0.003713
										CHANNELS 6 Xposition Yposition Zposition Xrotation Yrotation Zrotation
										JOINT mixamorig:RightHandMiddle3
										{
											OFFSET -2.949974 0.000015 -0.002054
											CHANNELS 6 Xposition Yposition Zposition Xrotation Yrotation Zrotation
											JOINT mixamorig:RightHandMiddle4
											{
												OFFSET -2.946640 0.000000 -0.000156
												CHANNELS 6 Xposition Yposition Zposition Xrotation Yrotation Zrotation
												End Site
												{
													OFFSET -294.664337 0.000000 -0.113670
												}
											}
										}
									}
								}
								JOINT mixamorig:RightHandRing1
								{
									OFFSET -9.103600 -0.043076 -1.865134
									CHANNELS 6 Xposition Yposition Zposition Xrotation Yrotation Zrotation
									JOINT mixamorig:RightHandRing2
									{
										OFFSET -3.379288 0.000000 -0.001055
										CHANNELS 6 Xposition Yposition Zposition Xrotation Yrotation Zrotation
										JOINT mixamorig:RightHandRing3
										{
											OFFSET -2.889687 -0.000015 0.000379
											CHANNELS 6 Xposition Yposition Zposition Xrotation Yrotation Zrotation
											JOINT mixamorig:RightHandRing4
											{
												OFFSET -2.638809 -0.000015 0.000941
												CHANNELS 6 Xposition Yposition Zposition Xrotation Yrotation Zrotation
												End Site
												{
													OFFSET -263.880371 0.000000 0.516020
												}
											}
										}
									}
								}
								JOINT mixamorig:RightHandPinky1
								{
									OFFSET -8.076683 -0.486710 -3.806280
									CHANNELS 6 Xposition Yposition Zposition Xrotation Yrotation Zrotation
									JOINT mixamorig:RightHandPinky2
									{
										OFFSET -3.600014 -0.000015 -0.003747
										CHANNELS 6 Xposition Yposition Zposition Xrotation Yrotation Zrotation
										JOINT mixamorig:RightHandPinky3
										{
											OFFSET -2.099983 0.000000 -0.005739
											CHANNELS 6 Xposition Yposition Zposition Xrotation Yrotation Zrotation
											JOINT mixamorig:RightHandPinky4
											{
												OFFSET -2.115768 -0.000031 -0.003680
												CHANNELS 6 Xposition Yposition Zposition Xrotation Yrotation Zrotation
												End Site
												{
													OFFSET -211.577087 0.000000 -0.350686
												}
											}
										}
									}
								}
							}
						}
					}
				}
				JOINT mixamorig:LeftShoulder
				{
					OFFSET 4.570447 11.014725 -2.160855
					CHANNELS 6 Xposition Yposition Zposition Xrotation Yrotation Zrotation
					JOINT mixamorig:LeftArm
					{
						OFFSET 10.592371 -0.524597 -2.232119
						CHANNELS 6 Xposition Yposition Zposition Xrotation Yrotation Zrotation
						JOINT mixamorig:LeftForeArm
						{
							OFFSET 27.841532 -0.000031 0.000026
							CHANNELS 6 Xposition Yposition Zposition Xrotation Yrotation Zrotation
							JOINT mixamorig:LeftHand
							{
								OFFSET 28.328846 -0.000061 0.000022
								CHANNELS 6 Xposition Yposition Zposition Xrotation Yrotation Zrotation
								JOINT mixamorig:LeftHandThumb1
								{
									OFFSET 2.466141 -1.576172 2.681732
									CHANNELS 6 Xposition Yposition Zposition Xrotation Yrotation Zrotation
									JOINT mixamorig:LeftHandThumb2
									{
										OFFSET 3.217812 -1.872070 1.916482
										CHANNELS 6 Xposition Yposition Zposition Xrotation Yrotation Zrotation
										JOINT mixamorig:LeftHandThumb3
										{
											OFFSET 2.656029 -1.528778 1.514513
											CHANNELS 6 Xposition Yposition Zposition Xrotation Yrotation Zrotation
											JOINT mixamorig:LeftHandThumb4
											{
												OFFSET 2.020889 -1.154053 1.115139
												CHANNELS 6 Xposition Yposition Zposition Xrotation Yrotation Zrotation
												End Site
												{
													OFFSET 190.885437 -115.081749 130.048782
												}
											}
										}
									}
								}
								JOINT mixamorig:LeftHandIndex1
								{
									OFFSET 9.109314 -0.518021 2.259871
									CHANNELS 6 Xposition Yposition Zposition Xrotation Yrotation Zrotation
									JOINT mixamorig:LeftHandIndex2
									{
										OFFSET 3.699989 0.000000 -0.000322
										CHANNELS 6 Xposition Yposition Zposition Xrotation Yrotation Zrotation
										JOINT mixamorig:LeftHandIndex3
										{
											OFFSET 2.850006 0.000000 0.000352
											CHANNELS 6 Xposition Yposition Zposition Xrotation Yrotation Zrotation
											JOINT mixamorig:LeftHandIndex4
											{
												OFFSET 2.774864 -0.000031 -0.000027
												CHANNELS 6 Xposition Yposition Zposition Xrotation Yrotation Zrotation
												End Site
												{
													OFFSET 277.486267 0.000000 -0.009857
												}
											}
										}
									}
								}
								JOINT mixamorig:LeftHandMiddle1
								{
									OFFSET 9.533394 0.000061 0.000044
									CHANNELS 6 Xposition Yposition Zposition Xrotation Yrotation Zrotation
									JOINT mixamorig:LeftHandMiddle2
									{
										OFFSET 3.699989 -0.000015 -0.000231
										CHANNELS 6 Xposition Yposition Zposition Xrotation Yrotation Zrotation
										JOINT mixamorig:LeftHandMiddle3
										{
											OFFSET 2.949997 -0.000015 -0.000059
											CHANNELS 6 Xposition Yposition Zposition Xrotation Yrotation Zrotation
											JOINT mixamorig:LeftHandMiddle4
											{
												OFFSET 2.952896 0.000031 0.000063
												CHANNELS 6 Xposition Yposition Zposition Xrotation Yrotation Zrotation
												End Site
												{
													OFFSET 295.289337 0.000000 0.022810
												}
											}
										}
									}
								}
								JOINT mixamorig:LeftHandRing1
								{
									OFFSET 9.104523 -0.042999 -1.865074
									CHANNELS 6 Xposition Yposition Zposition Xrotation Yrotation Zrotation
									JOINT mixamorig:LeftHandRing2
									{
										OFFSET 3.150009 -0.000031 0.000043
										CHANNELS 6 Xposition Yposition Zposition Xrotation Yrotation Zrotation
										JOINT mixamorig:LeftHandRing3
										{
											OFFSET 2.949982 -0.000015 0.000040
											CHANNELS 6 Xposition Yposition Zposition Xrotation Yrotation Zrotation
											JOINT mixamorig:LeftHandRing4
											{
												OFFSET 2.644348 0.000000 0.000057
												CHANNELS 6 Xposition Yposition Zposition Xrotation Yrotation Zrotation
												End Site
												{
													OFFSET 264.434631 0.000000 0.012105
												}
											}
										}
									}
								}
								JOINT mixamorig:LeftHandPinky1
								{
									OFFSET 8.077789 -0.486847 -3.806259
									CHANNELS 6 Xposition Yposition Zposition Xrotation Yrotation Zrotation
									JOINT mixamorig:LeftHandPinky2
									{
										OFFSET 3.599953 0.000031 0.014727
										CHANNELS 6 Xposition Yposition Zposition Xrotation Yrotation Zrotation
										JOINT mixamorig:LeftHandPinky3
										{
											OFFSET 2.100021 0.000015 0.007705
											CHANNELS 6 Xposition Yposition Zposition Xrotation Yrotation Zrotation
											JOINT mixamorig:LeftHandPinky4
											{
												OFFSET 2.125504 0.000031 0.007517
												CHANNELS 6 Xposition Yposition Zposition Xrotation Yrotation Zrotation
												End Site
												{
													OFFSET 212.550781 0.000000 0.625752
												}
											}
										}
									}
								}
							}
						}
					}
				}
			}
		}
	}
	JOINT mixamorig:RightUpLeg
	{
		OFFSET -8.207787 -6.751648 -1.599560
		CHANNELS 6 Xposition Yposition Zposition Xrotation Yrotation Zrotation
		JOINT mixamorig:RightLeg
		{
			OFFSET -0.000002 -44.370117 0.345942
			CHANNELS 6 Xposition Yposition Zposition Xrotation Yrotation Zrotation
			JOINT mixamorig:RightFoot
			{
				OFFSET 0.000003 -44.423679 -3.043532
				CHANNELS 6 Xposition Yposition Zposition Xrotation Yrotation Zrotation
				JOINT mixamorig:RightToeBase
				{
					OFFSET -0.000002 -8.728671 10.710558
					CHANNELS 6 Xposition Yposition Zposition Xrotation Yrotation Zrotation
					JOINT mixamorig:RightToe_End
					{
						OFFSET -0.000001 -0.000679 9.278119
						CHANNELS 6 Xposition Yposition Zposition Xrotation Yrotation Zrotation
						End Site
						{
							OFFSET 0.000000 -0.067690 927.812134
						}
					}
				}
			}
		}
	}
	JOINT mixamorig:LeftUpLeg
	{
		OFFSET 8.207793 -6.751686 -1.599556
		CHANNELS 6 Xposition Yposition Zposition Xrotation Yrotation Zrotation
		JOINT mixamorig:LeftLeg
		{
			OFFSET -0.000004 -44.370014 0.346954
			CHANNELS 6 Xposition Yposition Zposition Xrotation Yrotation Zrotation
			JOINT mixamorig:LeftFoot
			{
				OFFSET -0.000001 -44.423672 -3.044401
				CHANNELS 6 Xposition Yposition Zposition Xrotation Yrotation Zrotation
				JOINT mixamorig:LeftToeBase
				{
					OFFSET -0.000002 -8.728669 10.710558
					CHANNELS 6 Xposition Yposition Zposition Xrotation Yrotation Zrotation
					JOINT mixamorig:LeftToe_End
					{
						OFFSET -0.000003 -0.000679 9.278133
						CHANNELS 6 Xposition Yposition Zposition Xrotation Yrotation Zrotation
						End Site
						{
							OFFSET 0.000000 -0.068021 927.813477
						}
					}
				}
			}
		}
	}
}
MOTION
Frames: 3
Frame Time: 0.033333
0.000006 104.270477 1.554256 0.000010 0.000003 -0.000113 -0.000005 10.181587 0.131522 0.000001 -0.000003 0.000084 -0.000000 9.893967 -1.470711 0.000001 0.000000 -0.000000 -0.000000 9.220802 -1.370642 0.000000 -0.000000 -0.000000 0.000001 16.740433 -2.049030 0.000000 -0.000000 -0.000000 0.000000 9.617859 1.685014 0.000000 0.000000 0.000000 0.000002 22.037384 7.501101 0.000000 -0.000000 0.000000 -4.569968 11.014880 -2.160881 0.000008 0.000001 -0.000038 -10.592854 -0.524650 -2.232052 72.249290 1.067951 -0.779487 -27.841547 0.000023 0.000523 -58.884611 118.806441 87.335525 -28.328835 0.000023 0.000024 -0.000320 -0.000044 0.000007 -2.464417 -1.573913 2.682393 -32.501479 -155.455693 22.974028 -3.215245 -1.872537 1.924655 153.762120 33.281087 15.116194 -2.654957 -1.527890 1.513091 149.584831 26.043253 -40.196654 -2.018834 -1.152003 1.108068 -0.000004 0.000001 0.000002 -9.108393 -0.517576 2.260153 104.534372 18.058747 -23.270916 -3.700081 0.000301 0.001524 100.575471 14.908713 -17.875887 -2.850086 0.000369 -0.000239 98.750936 12.367904 -14.396282 -2.772177 0.000000 -0.000020 0.000001 0.000001 0.000002 -9.532579 0.000257 0.000249 94.582773 16.966762 -18.513113 -3.700076 0.000320 0.003981 93.921945 13.722963 -14.582691 -2.950071 0.000324 -0.001806 93.838220 12.273015 -13.109179 -2.946616 0.000006 -0.000153 0.000005 0.000001 -0.000000 -9.103707 -0.042761 -1.864863 91.369080 19.820036 -20.242790 -3.379357 0.000308 -0.000800 91.981113 11.680218 -12.106614 -2.889757 0.000340 0.000638 95.992722 7.445650 -8.316363 -2.638811 -0.000001 0.000929 0.000002 -0.000003 0.000001 -8.076753 -0.486412 -3.806064 82.506773 19.070177 -16.626142 -3.600028 0.000257 -0.003530 84.451205 9.526106 -8.321696 -2.100019 0.000318 -0.005511 85.981406 5.782527 -5.186111 -2.115776 -0.000041 -0.003680 0.000000 0.000002 -0.000003 4.570446 11.014691 -2.160851 -0.000018 0.000010 -0.000021 10.592360 -0.524534 -2.232271 69.878675 8.469804 -5.922723 27.841831 0.000140 -0.000210 103.954919 -62.161094 75.256862 28.328836 -0.000028 0.000032 0.000020 -0.000090 0.000001 2.466144 -1.576151 2.681884 -11.702452 151.791693 -57.333066 3.217777 -1.871726 1.916382 158.741246 -32.027283 -3.269343 2.656094 -1.528603 1.514466 145.098312 -26.573273 44.374349 2.020884 -1.154051 1.115142 -0.000000 0.000004 -0.000001 9.109382 -0.517842 2.259733 88.712416 -16.922557 16.539527 3.700046 0.000147 -0.000454 86.848628 -14.984434 14.206887 2.850056 0.000193 0.000210 85.071727 -13.046586 11.976989 2.774880 -0.000035 -0.000017 0.000000 0.000000 -0.000000 9.533469 0.000222 -0.000080 89.184867 -16.707029 16.465482 3.700060 0.000177 -0.000378 89.897638 -14.028402 14.000886 2.950075 0.000184 -0.000207 91.916929 -15.548552 16.073990 2.952880 -0.000033 0.000064 -0.000001 0.000001 0.000004 9.104600 -0.042821 -1.865221 87.888941 -15.385517 14.837015 3.150039 0.000217 -0.000082 91.993093 -12.373869 12.810284 2.950043 0.000196 -0.000078 94.619218 -12.400072 13.435104 2.644326 0.000030 0.000049 -0.000000 -0.000002 -0.000000 8.077847 -0.486708 -3.806399 78.731611 -17.067400 14.524773 3.600027 0.000198 0.014572 82.459836 -14.166208 12.881625 2.100049 0.000201 0.007542 86.178559 -11.887293 11.575549 2.125492 -0.000033 0.007518 -0.000000 -0.000001 0.000002 -8.207786 -6.751667 -1.599560 -0.077001 -0.000003 0.000080 -0.000002 -44.370110 0.345938 0.153719 -0.000000 -0.000000 0.000000 -44.423679 -3.043532 -0.076700 0.000000 -0.000002 -0.000006 -8.728667 10.710559 -0.000009 -0.000000 -0.000000 -0.000001 -0.000679 9.278123 0.000000 -0.000000 -0.000000 8.207792 -6.751710 -1.599556 -0.074518 -0.000003 0.000081 -0.000002 -44.370014 0.346960 0.148822 0.000002 0.000000 -0.000001 -44.423664 -3.044403 -0.074314 0.000000 -0.000002 -0.000004 -8.728671 10.710558 0.000007 -0.000000 -0.000000 0.000000 -0.000680 9.278137 -0.000000 0.000000 -0.000001 
0.000006 104.270477 1.554256 0.000010 0.000003 -0.000113 -0.000005 10.181587 0.131522 0.000001 -0.000003 0.000084 -0.000000 9.893967 -1.470711 0.000001 0.000000 -0.000000 -0.000000 9.220802 -1.370642 0.000000 -0.000000 -0.000000 0.000001 16.740433 -2.049030 0.000000 -0.000000 -0.000000 0.000000 9.617859 1.685014 0.000000 0.000000 0.000000 0.000002 22.037384 7.501101 0.000000 -0.000000 0.000000 -4.569968 11.014880 -2.160881 0.000008 0.000001 -0.000038 -10.592878 -0.524703 -2.231992 71.835087 14.140235 -10.267184 -27.841537 0.000023 0.000543 -58.091770 116.978587 84.345507 -28.328819 0.000022 0.000022 -0.000317 -0.000045 0.000006 -2.464427 -1.573762 2.682314 -49.482545 -165.476386 -14.116962 -3.215259 -1.872529 1.924633 149.149475 32.783788 19.019556 -2.654966 -1.527848 1.513069 146.697560 27.824639 -27.912982 -2.018819 -1.151996 1.108065 -0.000004 -0.000006 0.000002 -9.108373 -0.517545 2.260153 101.895050 14.640454 -18.051466 -3.700067 0.000331 0.001519 98.921999 12.110380 -14.113572 -2.850059 0.000392 -0.000258 96.916805 10.203010 -11.506210 -2.772152 -0.000001 -0.000024 -0.000003 0.000001 -0.000002 -9.532589 0.000267 0.000245 93.784583 15.070775 -16.237943 -3.700071 0.000336 0.003974 92.698023 12.781802 -13.292962 -2.950067 0.000340 -0.001801 94.946023 12.023293 -13.091901 -2.946623 0.000000 -0.000154 -0.000000 0.000000 -0.000001 -9.103701 -0.042756 -1.864887 92.263473 17.651376 -18.304373 -3.379355 0.000310 -0.000803 91.946955 10.881682 -11.273695 -2.889765 0.000357 0.000647 98.659009 7.697217 -9.006926 -2.638813 0.000001 0.000942 0.000001 -0.000001 -0.000002 -8.076758 -0.486402 -3.806045 83.912801 18.327148 -16.365758 -3.600038 0.000272 -0.003546 84.409431 8.967072 -7.810408 -2.100017 0.000339 -0.005513 88.058029 5.229657 -4.844732 -2.115784 -0.000071 -0.003676 -0.000000 0.000004 -0.000003 4.570446 11.014691 -2.160851 -0.000018 0.000010 -0.000021 10.592354 -0.524554 -2.232255 70.385755 16.724425 -11.836802 27.841843 0.000109 -0.000207 103.412930 -66.394623 79.297130 28.328817 -0.000028 0.000027 0.000021 -0.000087 -0.000000 2.466234 -1.576073 2.681844 7.087794 166.247173 -97.916677 3.217839 -1.871764 1.916401 167.746058 -28.595277 13.844061 2.656098 -1.528671 1.514475 147.131441 -24.898871 55.092562 2.020875 -1.154083 1.115138 -0.000002 0.000002 0.000003 9.109398 -0.517860 2.259765 89.703565 -21.447098 21.326067 3.700056 0.000150 -0.000462 86.579847 -13.438639 12.682024 2.850050 0.000188 0.000194 85.263130 -9.844275 9.064522 2.774891 -0.000025 -0.000032 -0.000001 -0.000003 0.000002 9.533463 0.000206 -0.000069 88.947183 -19.555585 19.197213 3.700050 0.000198 -0.000387 92.208046 -10.356122 10.758048 2.950056 0.000193 -0.000210 93.458462 -9.915964 10.532981 2.952867 -0.000033 0.000074 -0.000001 -0.000002 -0.000000 9.104599 -0.042849 -1.865214 88.482881 -18.757376 18.277487 3.150049 0.000202 -0.000078 94.249924 -11.125020 11.978335 2.949994 0.000193 -0.000102 95.284820 -9.001226 9.870013 2.644320 0.000031 0.000063 0.000001 -0.000000 0.000002 8.077841 -0.486716 -3.806418 82.774646 -19.679110 17.914983 3.600008 0.000190 0.014558 82.526109 -15.499135 14.076981 2.100053 0.000180 0.007547 83.607533 -10.727737 10.024169 2.125494 -0.000011 0.007520 0.000001 -0.000000 0.000001 -8.207786 -6.751667 -1.599560 -0.077001 -0.000003 0.000080 -0.000002 -44.370110 0.345938 0.153719 -0.000000 -0.000000 0.000000 -44.423679 -3.043532 -0.076700 0.000000 -0.000002 -0.000006 -8.728667 10.710559 -0.000009 -0.000000 -0.000000 -0.000001 -0.000679 9.278123 0.000000 -0.000000 -0.000000 8.207792 -6.751710 -1.599556 -0.074518 -0.000003 0.000081 -0.000002 -44.370014 0.346960 0.148822 0.000002 0.000000 -0.000001 -44.423664 -3.044403 -0.074314 0.000000 -0.000002 -0.000004 -8.728671 10.710558 0.000007 -0.000000 -0.000000 0.000000 -0.000680 9.278137 -0.000000 0.000000 -0.000001 
0.000006 104.270477 1.554256 0.000010 0.000003 -0.000113 -0.000005 10.181587 0.131522 0.000001 -0.000003 0.000084 -0.000000 9.893967 -1.470711 0.000001 0.000000 -0.000000 -0.000000 9.220802 -1.370642 0.000000 -0.000000 -0.000000 0.000001 16.740433 -2.049030 0.000000 -0.000000 -0.000000 0.000000 9.617859 1.685014 0.000000 0.000000 0.000000 0.000002 22.037384 7.501101 0.000000 -0.000000 0.000000 -4.569968 11.014880 -2.160881 0.000008 0.000001 -0.000038 -10.592882 -0.524709 -2.231977 71.125697 17.058397 -12.240031 -27.841530 0.000002 0.000535 -57.753136 114.605588 81.334057 -28.328829 0.000007 0.000023 -0.000324 -0.000045 0.000007 -2.464410 -1.573763 2.682332 -47.001346 -162.991646 -7.709469 -3.215253 -1.872538 1.924634 151.305274 32.619392 14.143991 -2.654972 -1.527892 1.513071 147.208963 27.440690 -31.314843 -2.018835 -1.152030 1.108061 -0.000004 -0.000002 0.000005 -9.108366 -0.517557 2.260132 102.223801 15.151730 -18.784426 -3.700068 0.000323 0.001523 99.779836 12.018088 -14.218085 -2.850066 0.000375 -0.000243 98.740930 9.827286 -11.442638 -2.772163 -0.000000 -0.000024 -0.000000 -0.000000 -0.000000 -9.532583 0.000277 0.000239 94.321402 15.998210 -17.387666 -3.700076 0.000327 0.003981 93.606418 12.761435 -13.482121 -2.950064 0.000336 -0.001781 96.003384 11.712605 -12.990502 -2.946619 -0.000015 -0.000157 -0.000001 -0.000000 0.000001 -9.103708 -0.042767 -1.864880 92.931069 18.519863 -19.426731 -3.379331 0.000321 -0.000817 92.670941 11.184779 -11.733589 -2.889767 0.000343 0.000663 99.020401 7.612989 -8.965827 -2.638832 -0.000017 0.000939 0.000001 0.000000 -0.000000 -8.076742 -0.486398 -3.806046 84.128000 18.681459 -16.747689 -3.600044 0.000270 -0.003534 84.436356 9.590187 -8.377478 -2.100027 0.000303 -0.005509 88.050810 5.678490 -5.276641 -2.115779 -0.000042 -0.003672 -0.000000 0.000001 -0.000005 4.570446 11.014691 -2.160851 -0.000018 0.000010 -0.000021 10.592358 -0.524534 -2.232275 70.210185 11.234614 -7.910062 27.841837 0.000098 -0.000238 103.408873 -66.130001 79.009108 28.328863 -0.000043 0.000021 0.000019 -0.000089 -0.000000 2.466236 -1.576043 2.681831 10.750918 167.223959 -102.986412 3.217847 -1.871823 1.916404 168.761680 -24.415870 28.337581 2.656124 -1.528647 1.514484 145.976210 -25.397879 54.248853 2.020879 -1.154074 1.115155 0.000002 0.000001 0.000004 9.109388 -0.517854 2.259749 90.625265 -21.140327 21.353924 3.700034 0.000185 -0.000452 88.660425 -13.892466 13.591113 2.850062 0.000218 0.000200 87.500023 -10.257547 9.820441 2.774885 -0.000031 -0.000026 -0.000002 -0.000004 0.000001 9.533471 0.000204 -0.000073 89.548418 -19.250632 19.093241 3.700038 0.000208 -0.000369 93.370359 -10.860668 11.512000 2.950044 0.000199 -0.000204 94.411868 -9.971447 10.768981 2.952852 -0.000028 0.000067 -0.000001 0.000000 0.000002 9.104586 -0.042843 -1.865209 89.758801 -18.531714 18.457189 3.150055 0.000219 -0.000082 95.487424 -12.455639 13.700192 2.950009 0.000207 -0.000089 96.113486 -9.732329 10.826119 2.644330 0.000047 0.000058 -0.000001 -0.000000 -0.000002 8.077847 -0.486711 -3.806407 83.698764 -19.583747 18.116858 3.600002 0.000171 0.014581 83.013586 -16.222208 14.842860 2.100026 0.000194 0.007540 83.841050 -11.077573 10.381596 2.125509 0.000002 0.007508 -0.000001 -0.000000 -0.000002 -8.207786 -6.751667 -1.599560 -0.077001 -0.000003 0.000080 -0.000002 -44.370110 0.345938 0.153719 -0.000000 -0.000000 0.000000 -44.423679 -3.043532 -0.076700 0.000000 -0.000002 -0.000006 -8.728667 10.710559 -0.000009 -0.000000 -0.000000 -0.000001 -0.000679 9.278123 0.000000 -0.000000 -0.000000 8.207792 -6.751710 -1.599556 -0.074518 -0.000003 0.000081 -0.000002 -44.370014 0.346960 0.148822 0.000002 0.000000 -0.000001 -44.423664 -3.044403 -0.074314 0.000000 -0.000002 -0.000004 -8.728671 10.710558 0.000007 -0.000000 -0.000000 0.000000 -0.000680 9.278137 -0.000000 0.000000 -0.000001 
